/* XPM */
static char *_a873cb1a39a40f2d6264abeb9eac9a1[] = {
/* columns rows colors chars-per-pixel */
"16 16 66 1 ",
"  c black",
". c #000005",
"X c #000010",
"o c #000016",
"O c #0D0A17",
"+ c #00001C",
"@ c #00001F",
"# c #00081F",
"$ c #0C0D1C",
"% c #0E0D1C",
"& c #000220",
"* c #000520",
"= c #000523",
"- c #000925",
"; c #000E26",
": c #001028",
"> c #1F1F2A",
", c #001631",
"< c #001533",
"1 c #001634",
"2 c #001A36",
"3 c #001B37",
"4 c #041936",
"5 c #081C35",
"6 c #001838",
"7 c #001B38",
"8 c #00183A",
"9 c #001C39",
"0 c #001E3C",
"q c #051E3F",
"w c #10223E",
"e c #33323B",
"r c #001E40",
"t c #002041",
"y c #042442",
"u c #062446",
"i c #0C3A59",
"p c #2E2F44",
"a c #333649",
"s c #36384A",
"d c #383A4E",
"f c #3A3C4F",
"g c #3B3E51",
"h c #3F404F",
"j c #0F4770",
"k c #404153",
"l c #58555E",
"z c #525564",
"x c #676267",
"c c #646473",
"v c #676B7E",
"b c #767277",
"n c #75797E",
"m c #757482",
"M c #807D87",
"N c #2BBCFF",
"B c #908A93",
"V c #949092",
"C c #BCBDBE",
"Z c #CDCDCD",
"A c #D4D0D1",
"S c #EBEBEC",
"D c #F3F1EF",
"F c #F9F7F4",
"G c #FDFDFC",
"H c gray100",
/* pixels */
"2977777777777792",
"9777927777777779",
"7797@<09707@1977",
"7774d-1097&dw277",
"77@sHV 2t.bHzo97",
"99@gHHlX@eHA%197",
"70&dHHH$ FDO=077",
"79@gGnSZCHeot777",
"99@fHh>HHx.r7727",
"99@fHv MBX7#<r77",
"29@kHmo+o29iy<92",
"99@aHc@09:rNj@99",
"999<p577772u9299",
"9399&107779;2992",
"9729977777792939",
"2977777777779392"
};
