/* XPM */
static char *cbc56d7914e84f5bcc9ce30b606ab552[] = {
/* columns rows colors chars-per-pixel */
"32 32 185 2 ",
"   c black",
".  c #000001",
"X  c #000002",
"o  c #000003",
"O  c #000004",
"+  c #000006",
"@  c #000007",
"#  c #000008",
"$  c #00000A",
"%  c #00000B",
"&  c #00000C",
"*  c #00000F",
"=  c #000010",
"-  c #000011",
";  c #000012",
":  c #000013",
">  c #000014",
",  c #000016",
"<  c #000017",
"1  c #050716",
"2  c #000019",
"3  c #00001A",
"4  c #00021B",
"5  c #00051A",
"6  c #00041B",
"7  c #00011C",
"8  c #00001D",
"9  c #00001E",
"0  c #00031E",
"q  c #00071C",
"w  c #00081C",
"e  c #0E0D1D",
"r  c #000321",
"t  c #000323",
"y  c #000521",
"u  c #000621",
"i  c #000624",
"p  c #000A27",
"a  c #000D24",
"s  c #000E26",
"d  c #000F27",
"f  c #000D2B",
"g  c #000F2A",
"h  c #000E2C",
"j  c #000F2E",
"k  c #100F21",
"l  c #00102E",
"z  c #00132F",
"x  c #00142E",
"c  c #141522",
"v  c #1E1F25",
"b  c #1A1D2A",
"n  c #001231",
"m  c #001433",
"M  c #001533",
"N  c #001732",
"B  c #001634",
"V  c #001735",
"C  c #001636",
"Z  c #001736",
"A  c #001835",
"S  c #001A35",
"D  c #001837",
"F  c #021936",
"G  c #001A36",
"H  c #001A37",
"J  c #001B37",
"K  c #001838",
"L  c #001839",
"P  c #001B38",
"I  c #001B39",
"U  c #001A3A",
"Y  c #001B3A",
"T  c #001C38",
"R  c #001C39",
"E  c #001D39",
"W  c #001C3A",
"Q  c #001D3A",
"!  c #001D3B",
"~  c #001E3B",
"^  c #001A3C",
"/  c #001B3D",
"(  c #001B3E",
")  c #001D3C",
"_  c #001E3C",
"`  c #001F3C",
"'  c #001F3D",
"]  c #001D3E",
"[  c #001F3E",
"{  c #001F3F",
"}  c #041F3E",
"|  c #00203D",
" . c #00203E",
".. c #00203F",
"X. c #232633",
"o. c #292B39",
"O. c #001F40",
"+. c #002040",
"@. c #002140",
"#. c #002041",
"$. c #062241",
"%. c #092F53",
"&. c #0B3857",
"*. c #323240",
"=. c #34364A",
"-. c #3A3A4A",
";. c #0B3964",
":. c #404257",
">. c #484856",
",. c #474758",
"<. c #4F5460",
"1. c #565663",
"2. c #515266",
"3. c #5C5763",
"4. c #585A6C",
"5. c #5A5C6D",
"6. c #5A5D70",
"7. c #5F6773",
"8. c #62636E",
"9. c #646673",
"0. c #676772",
"q. c #646677",
"w. c #676979",
"e. c #67697A",
"r. c #696B7B",
"t. c #706B74",
"y. c #135E91",
"u. c #145E94",
"i. c #1A79BC",
"p. c #7C7F87",
"a. c #777989",
"s. c #7B7C8D",
"d. c #219BEC",
"f. c #27B3FF",
"g. c #28BAFF",
"h. c #2CC6FF",
"j. c #878E97",
"k. c #8A8895",
"l. c #8A8B94",
"z. c #8F8D98",
"x. c #928F97",
"c. c #94959D",
"v. c #9F9FA8",
"b. c #9EA0AB",
"n. c #ABA6AD",
"m. c #ADB2B8",
"M. c #AEB2BA",
"N. c #B7B7BC",
"B. c #B7B7BD",
"V. c #BABBC2",
"C. c #BFBFC4",
"Z. c #C8C8CC",
"A. c #C9C8CC",
"S. c #D5D3D5",
"D. c #DFDEDF",
"F. c #DCDFE3",
"G. c #E5E3E4",
"H. c #E4E7E9",
"J. c #EAE8E9",
"K. c #EFEDEE",
"L. c #EDEEEF",
"P. c #EFF0F0",
"I. c gray95",
"U. c #F3F2F3",
"Y. c #F4F4F4",
"T. c #F6F4F5",
"R. c #F6F5F6",
"E. c #F6F6F6",
"W. c #F7F6F6",
"Q. c gray97",
"!. c #F8F7F7",
"~. c #F8F7F8",
"^. c #F6F8FB",
"/. c #F9F9F9",
"(. c #FAF9F8",
"). c #F9F9FA",
"_. c #FBFBFB",
"`. c #FCFCFB",
"'. c gray99",
"]. c #FCFCFD",
"[. c #FEFCFC",
"{. c #FEFDFC",
"}. c #FEFEFE",
"|. c gray100",
" X c None",
/* pixels */
" XH T P P P P P P P P P P P P P P P P P P P P P P P P P P T P  X",
"H P P P P P P P P P P P P P P P P P P P P P P P P P P P P P P H ",
"T P P P P P P P P P P P P P P P P P P P P P P P P P P P P P P T ",
"H T P P P P P P P P P P P P P P P P P P P P P P P P P P P P P P ",
"P P P P P P P P T T P P P P P P P P P P P P T P P P P P P P P P ",
"P P P P P P P P T T T P P P P P P P P P P P T T P P P P P P P P ",
"P P P P P P T _ 2 : B | P P P P P P P P _ P 2 : B _ P P P P P P ",
"P P P P P P P u 6.s.r h _ P P P P P P T P < q.a.p B T P P P P P ",
"P P P P P T 0 ,.|.|.n.+ B T P P P P P O.+ t.|.|.k.: P P P P P P ",
"P P P P P _ : r.|.W.|.p.  ( P P P H #.& -.|./.|.b.& _ P P P P P ",
"P P P P P T < 4.|.I./.|.>.& | H P | 0 c L.|.|.D.k l T P P P P P ",
"P P P P T T < 5.|.W.L.|.W.b 2 | _ l # A.|.`.|.X.< | P P P P P P ",
"P P P P P _ < 5.|.I.|.!.|.S.: f (   c.|./.|.1.+ O.P P P P P P P ",
"P P P P P T < 5.|.W.F.^.W.|.v.+   8.|.Q.|.k.  ( P P P P P P P P ",
"P P P P P T 2 5.|.|.j.7.|.W.|.<.v |./.|.C.# n _ P P P P P P P P ",
"P P P P P _ 2 5.|.|.m.  m.|.~.P.H.|.|.J.e u _ P P P P P P P P P ",
"P P P P T T < 5.|.|.V.# 1 G.|.|.|./.|.*.: #.P P P P P P P P P P ",
"P P P P T T < 5.|.|.B.r : o.|.|.W.|.0.+ O.P P P P P P P P P P P ",
"P P P P P _ < 5.|.|.B.0 P # 3.|.|.x.  P T P P T P P P P P P P P ",
"P P P P P T < 5.|.|.B.0 L P < 2.e.0 n _ P P T T T P P P P P P P ",
"P P P P T _ 2 5.|.|.B.0 P T _ 2 : B _ P T _ w & x | P P P P P P ",
"P P P P T T < 5.|.|.B.2 B P P _ T P P P T s ;.y.H n T P P P P P ",
"P P P P P T : w.|.|.Z.0 B P P P T P P _ q %.f.h.i.: P P P P P P ",
"P P P P H T u =.|.|.z.: P P P P P P P T f $.d.g.u.5 T P P P P P ",
"P P P P P P _ i :.0.f n | T P P P P P P _ s O.&.s H T P P P P P ",
"P P P P P P P _ 0 < n | P T P P P P P P T _ f q H T P P P P P P ",
"P P P P P P P P T T P P P P P P P P P P P P T T T P P P P P P P ",
"P P P P P P P P P P P P P P P P P P P P P P P P P P P P P P P P ",
"P P P P P P P P P P P P P P P P P P P P P P P P P P P P P P P P ",
"P P P P P P P P P P P P P P P P P P P P P P P P P P P P P P P T ",
"P P P P P P P P P P P P P P P P P P P P P P P P P P P P P P P P ",
" XP _ P P P P P P P P P P P P P P P P P P P P P P P P P P P P  X"
};
