/* XPM */
static char *motion32[] = {
/* columns rows colors chars-per-pixel */
"32 32 48 1 ",
"  c #AF1E22",
". c #B11E22",
"X c #B11F22",
"o c #B21F22",
"O c #B31F22",
"+ c #B41E22",
"@ c #B41F22",
"# c #B41F23",
"$ c #B61F23",
"% c #B81F23",
"& c #B91F23",
"* c #BA1F23",
"= c #BB1F23",
"- c #BD1F23",
"; c #BE1F23",
": c #BF1F23",
"> c #C01F23",
", c #C21F23",
"< c #C41F24",
"1 c #C51F24",
"2 c #C71F24",
"3 c #C91F24",
"4 c #CA1F24",
"5 c #CC1F24",
"6 c #CE1F24",
"7 c #CF1F24",
"8 c #D12024",
"9 c #D12124",
"0 c #D22124",
"q c #D32124",
"w c #D42124",
"e c #D42125",
"r c #D62124",
"t c #D72124",
"y c #D62125",
"u c #D82124",
"i c #D82125",
"p c #D92125",
"a c #DB2125",
"s c #DC2125",
"d c #DE2125",
"f c #DF2125",
"g c #E12125",
"h c #E22125",
"j c #E52125",
"k c #E62125",
"l c #E62225",
"z c None",
/* pixels */
"zzzzzzzzzzzzkkkkkkkkzzzzzzzzzzzz",
"zzzzzzzzzkkkkkkkkkkkkkkzzzzzzzzz",
"zzzzzzzkkkkkkzzzzzzkkkkkzzzzzzzz",
"zzzzzzkkkkzzzzzzzzzzzzkkkkzzzzzz",
"zzzzzkkkzzzzzzzzzzzzzzzzkkkzzzzz",
"zzzzkkkzzzzzzzzkkzzzzzzzzkkzzzzz",
"zzzkkkzzzzzzzkkkkkkzzzzzzzzzzzzz",
"zzzkkzzzzzzkkkkkkkkkkzzzzzzzkzzz",
"zzkkkzzzzzkkkkzzzzllllzzzzkkkkzz",
"zkkkzzzzkkkkzzzzzzzzklljzkkkkkkz",
"zkkzzzzkkkkzzzzzzzzzzjjjkkkzzkkz",
"zggzzzgggggzzzzzzzzzzffjggzzzggz",
"dddzzzdddddddzzzzzzfsfsfddzzzddd",
"aaazzzaaazaaaaazzssssszsadzzzzad",
"aazzzzaawzzzaawawaiizzziawzzzzaa",
"wwzzzzwwazzzzzwaiazzzzziiwzzzzww",
"w9zzzzw9wzzzzzzwwzzzzzzi9wzzzzww",
"99zzzz999zzzzzz99zzzzzz999zzzz99",
"76zzzz667zzzzzz76zzzzzz666zzzz77",
"266zzz666zzzzzz66zzzzzz666zzz626",
"z26zzz222zzzzzz22zzzzzz222zzz26z",
"z2222222222zzzz22zzzz22222zzz22z",
"z22>222z>222zzz22zzz22>2zzzz222z",
"zz2>>zzzzz>>>>z>>z>>>2zzzzzz>>zz",
"zzzzzzzzzzz>>:::;;;,,zzzzzz>>zzz",
"zzzzzzzzzzzzz:::;;;zzzzzzz>==zzz",
"zzzz***zzzzzzzz%*zzzzzzzz==*zzzz",
"zzzzz*$*zzzzzzzzzzzzzzzz=**zzzzz",
"zzzzzz$$#%zzzzzzzzzzzz##$*zzzzzz",
"zzzzzzzXX####zzzzzz#####$zzzzzzz",
"zzzzzzzzzXXXXXoooooo.X.zzzzzzzzz",
"zzzzzzzzzzzz X      zzzzzzzzzzzz"
};
