/* XPM */
static char *motion64[] = {
/* columns rows colors chars-per-pixel */
"64 64 85 1 ",
"  c #AE1E22",
". c #AF1E22",
"X c #AE1F22",
"o c #AF1F22",
"O c #B01E22",
"+ c #B11E22",
"@ c #B01F22",
"# c #B11F22",
"$ c #B21F22",
"% c #B31F22",
"& c #B21F23",
"* c #B31F23",
"= c #B41F23",
"- c #B51F23",
"; c #B61F23",
": c #B71F23",
"> c #B81F23",
", c #B91F23",
"< c #BA1F23",
"1 c #BB1F23",
"2 c #BC1F23",
"3 c #BD1F23",
"4 c #BE1F23",
"5 c #BF1F23",
"6 c #BF1F24",
"7 c #C01F23",
"8 c #C11F23",
"9 c #C21F23",
"0 c #C31F23",
"q c #C01F24",
"w c #C11F24",
"e c #C21F24",
"r c #C31F24",
"t c #C41F24",
"y c #C51F24",
"u c #C61F24",
"i c #C71F24",
"p c #C81F24",
"a c #C91F24",
"s c #CA1F24",
"d c #CB1F24",
"f c #CC1F24",
"g c #CD1F24",
"h c #CE1F24",
"j c #CF1F24",
"k c #D01F24",
"l c #CF2024",
"z c #D02024",
"x c #D12024",
"c c #D02124",
"v c #D12124",
"b c #D02125",
"n c #D12125",
"m c #D22124",
"M c #D32124",
"N c #D22125",
"B c #D32125",
"V c #D42124",
"C c #D52124",
"Z c #D42125",
"A c #D52125",
"S c #D62125",
"D c #D72125",
"F c #D82125",
"G c #D92125",
"H c #DA2125",
"J c #DB2125",
"K c #DC2125",
"L c #DD2125",
"P c #DE2125",
"I c #DF2125",
"U c #E02125",
"Y c #E12125",
"T c #E22125",
"R c #E32125",
"E c #E42125",
"W c #E52125",
"Q c #E62125",
"! c #E42225",
"~ c #E52225",
"^ c #E62225",
"/ c #E72225",
"( c #E62126",
") c #E62226",
"_ c None",
/* pixels */
"___________________________Q^^^^Q^Q^^___________________________",
"______________________QQQQ)Q^^^^QQQQ^QQQ^^______________________",
"____________________QQQQ^^))^^))QQQQQQQQQ)))____________________",
"__________________Q^QQQQ^^^)^^^)^QQ^QQQQ)QQ)QQ__________________",
"________________^^^^)QQQ^^QQQQ)__)QQQQQ)QQQQQQ)Q________________",
"______________QQ)Q^^)QQQ_______________)QQQQ)QQQQQ______________",
"_____________QQQ))QQQQ____________________QQ^^Q)QQQ_____________",
"____________QQQQ)QQQ________________________^^QQ)QQQ____________",
"__________))^QQQQQ____________________________QQQ^^^QQ__________",
"_________QQQ^^^)________________________________Q^^^)QQ_________",
"________QQ)))Q^________________Q)________________Q^^QQ)_________",
"________QQ)QQQ_______________QQQ)QQ_______________^)Q)__________",
"_______)Q)QQ)______________QQQQQ)^Q))______________Q____________",
"______Q)Q)QQ______________))QQQ)^^QQQQQ_________________________",
"_____QQ^Q))_____________^^)QQQQQ^QQQ)^^Q_________________Q)_____",
"_____QQ^^^____________^^^)QQQQQ__QQQQ)^QQQ______________QQ)_____",
"____QQQQQ___________QQQQQQ)^^______))QQQQQ^^__________QQQQ^Q____",
"____)QQQ)__________))QQQ)Q)^_________QQQ)Q^^Q_______^^QQ)))Q____",
"___Q^^QQ_________QQ)^^))QQ____________QQ^^))QQ)___QQQ)^)Q^QQQ___",
"___)^^))_______QQQQQ^^^^________________^^QQ)Q)QQQQQQ^^))^)Q)___",
"__QQ^^^______))QQQQQ^Q____________________QQ/QQ)QQQQ)))Q_^)))Q__",
"__QQ^RQ______)UQQQUQ^______________________QUQQ)UQQQQQ___^)QQQ__",
"__UUUU_______UUQUUUQU_____________________UUQUQUQUQU______QUUQU_",
"_UQUUU_______UUUUUUQUUU_________________UQUUUUUUUUU_______UUUUU_",
"_LUULU_______LUUUUULUULUU_____________LUUUUUUUUUUUU________LUUU_",
"_LLLL________LLLLLLLLLLLLLLL________LLULLLLLLLLLLLL________LLUL_",
"_JLJL________LJLL__LLJJLLJLLJL____LLLJLLLJJL___LLLL________LJLLL",
"JJJJJ________JJJL____JJJJJJLJJJJJJJJJJJJJJ_____LJLJ________JJJJJ",
"JJJSJ________JJSJ_______JJJSJJJJJJJJJJJJ_______JJJJ________JJJJJ",
"SSSJJ________SSJJ_________SJSSJSSSSSSS_________JSJS________JSJSS",
"SSJSS________SJSS___________JSSJSJSJ___________SSJS_________SSSJ",
"SSBSS________SSBS_____________SSSS_____________SSSS_________SSSS",
"SBBB_________BBBS_____________BSBS_____________SSBS_________SSSS",
"BBBBB________BBBB_____________BBBB_____________mBBB_________BBBB",
"mBBBB________BBmB_____________BlBB_____________mcBB________BBmBB",
"jcjcB________BBBB_____________cBcc_____________BlBB________Blmcc",
"jgkgk________gkgc_____________gkll_____________glgg________glgBj",
"_gkgg________ggkj_____________gkgl_____________gggg________gggg_",
"_gggg________gdgg_____________gdgg_____________gggg________gggg_",
"_ddddd_______dddg_____________ddgd_____________dggg________dgdg_",
"_ddidd_______dddd_____________dddd_____________dddd_______diddd_",
"_dddid_____didiiidd___________didi____________ddidd_______dddi__",
"__iiiii__iiiiiiiiiiii_________didi__________idiiiii______idiid__",
"__iiiiiiiiiiiiiiiiiiii________iiii________iiiiiiiii______diiii__",
"___riiriiriiriiiriiiiiii______iiri______iiiriiiri________iiii___",
"___irrrrrrrri____rrrrrrrrr____rrrr_____rrrirrri_________rirrr___",
"____6rrrrrr________rrrrrrrr___irri___irrrrrrrr_________ir8ir____",
"____8r868___________r3r8rr8r8_8888_r88rr8r8r___________r8888____",
"_____r3_______________83888r38883r83888838____________8r388_____",
"________________________8333883836883838_____________838388_____",
"_________________________83333333883333_____________333338______",
"___________33______________3333333333______________333333_______",
"_________11111_______________313331_______________111113________",
"________1111111_______________111________________1111111________",
"_________1:1:11:________________________________111111:_________",
"__________1:::1::1____________________________1:::::::__________",
"___________:::::::::_________________________::::::::___________",
"_____________::::::*::_____________________:::*::::_____________",
"______________****:****:________________***:**::*:______________",
"________________**************____**************________________",
"__________________**##************#********#***_________________",
"____________________#*X**X*X## ####X*X*XX*X*____________________",
"______________________*X*XX*o##oooX*X*oo*X______________________",
"__________________________oo oooooX*XX__________________________"
};
