/* XPM */
static char *_c7996a3c55b4740df2835e02863d0eb[] = {
/* columns rows colors chars-per-pixel */
"64 64 100 2 ",
"   c #000005",
".  c #00000B",
"X  c #000015",
"o  c #00011A",
"O  c #00091D",
"+  c #000422",
"@  c #000A24",
"#  c #0A0C22",
"$  c #010C2A",
"%  c #0C0F2A",
"&  c #0E1026",
"*  c #00112D",
"=  c #12142C",
"-  c #001533",
";  c #001937",
":  c #001B38",
">  c #131732",
",  c #171C32",
"<  c #181C33",
"1  c #00213D",
"2  c #1C2137",
"3  c #1E253C",
"4  c #22233C",
"5  c #20283D",
"6  c #022342",
"7  c #06274A",
"8  c #122541",
"9  c #082F55",
"0  c #083158",
"q  c #252C41",
"w  c #292E46",
"e  c #2E344A",
"r  c #32374D",
"t  c #30394E",
"y  c #343B51",
"u  c #3C4859",
"i  c #0C436F",
"p  c #0C4370",
"a  c #0C4779",
"s  c #0D4A7C",
"d  c #3F4B60",
"f  c #43485D",
"g  c #4B5265",
"h  c #555B6D",
"j  c #5C6274",
"k  c #646B7C",
"l  c #115D9A",
"z  c #176DB1",
"x  c #686F80",
"c  c #677284",
"v  c #697081",
"b  c #717383",
"n  c #777E8D",
"m  c #787D8C",
"M  c #768392",
"N  c #7D8796",
"B  c #7E8897",
"V  c #1C85CD",
"C  c #1D89DB",
"Z  c #1E8EE3",
"A  c #2093EA",
"S  c #24A4FE",
"D  c #26ADFF",
"F  c #27B1FF",
"G  c #808796",
"H  c #848D9C",
"J  c #8C919F",
"K  c #91979E",
"L  c #9297A5",
"P  c #949BA9",
"I  c #9A9FAC",
"U  c #9BA2AE",
"Y  c #A3A7B3",
"T  c #A6A9B3",
"R  c #AAABB5",
"E  c #A9AEBA",
"W  c #ADB1BB",
"Q  c #B7B7BF",
"!  c #B5BBC4",
"~  c #BABEC5",
"^  c #BDC1C9",
"/  c #C4C6CC",
"(  c #C5C8CE",
")  c #C9CED3",
"_  c #D2D6DA",
"`  c #D7DBDF",
"'  c #D8D8DD",
"]  c #DCDEE2",
"[  c #DFE2E5",
"{  c #E2E3E7",
"}  c #E5E6E9",
"|  c #E6E9EF",
" . c #EDEDEF",
".. c #EFEFF0",
"X. c #F0EFF0",
"o. c #F1F1F2",
"O. c #F8F7F7",
"+. c #F7F7F9",
"@. c #FFFFFF",
"#. c None",
/* pixels */
"#.#.#.: : : : : : : : : : : : : : : : : : : : : : : : : : : : : : : : : : : : : : : : : : : - : : : : : : : : : : : : : : #.#.#.",
"#.1 - : : : : : : : : : : : : : : - : : : : : : : : : : : : : : : - : : : : : : : : : : : : : : : : : : : : : : : : : : : - 1 #.",
"#.- : : : : : : : : : : : : : : : : : : : : : : : : : : : : : : : : : : : : : : : : : : : : : : : : : : : : : : : : : : : 1 * #.",
": : : : : : : : : : : : : : : : : : : : : : : : : : : : : : : : : : : : : : : : : : : : : : : : : : : : : : : : : : : : : : : : ",
": : : : : : : : : : : : : : : : : : : : : : : : : : : : : : : : : : : : : : : : : : : : : : : : : : : : : : : : : : : : : : : : ",
": : : : : : : : : : : : : : : : : : : : : : : : : : : : : : : : : : : : : : : : : : : : : : : : : : : : : : : : : : : : : : : : ",
": : : : : : : : : : : : : : : : : : : : : : : : : : : : : : : : : : : : : : : : : : : : : : : : : : : : : : : : : : : : : : : : ",
": : : : : : : : : : : : : : : : : : : : : : : : : : : : : : : : : : : : : : : : : : : : : : : : : : : : : : : : : : : : : : : : ",
": : : : : : : : : : : : : : : : : : : : : : : : : : : : : : : : : : : : : : : : : : : : : : : : : : : : : : : : : : : : : : : : ",
": : : : : : : : : : : : : : : : : : : : : : : : : : : : : : : : : : : : : : : : : : : : : : : : : : : : : : : : : : : : : : : : ",
": : : : : : : : : : : : : : : : : : : : : : : : : : : : : : : : : : : : : : : : : : : : : : : : : : : : : : : : : : : : : : : : ",
": : : : : : : : : : : : : : : : : : : : : : : : : : : - : : : : : : : : : : : : : : : : : : : : : : : : : : : : : : : : : : : : ",
": : : : : : : : : : : : : : : : : : : : : : : : : : : : : : : : : : : : : : : : : : : : : : : : : : : : : : : : : : : : : : : : ",
": : : : : : : : : : : : : : : : : - $ - : : : : : : : : : : : : : : : - : : : : : : : : : * $ - : : : : : : : : : : : : : : : : ",
": : : - : : : : : : : : : : : : o $ 8 o + 1 : : : : : : : : : : : : : : : : : : : : : - X - 8 o @ 1 : : : : : : : : : : : : : : ",
": : : : : : : : : : : : : : : X h _ +.Q 4 o 1 : : : : : : : : : : : : : : : : : : : - X b { o.W = @ : : - : : : : : : : : : : : ",
": : : : : : : : : : : : : : o g @.@.@.@.| = o 1 : : : : : : : : : : : : : : : : : :   m @.@.@.@.( + - : : : : : : : : : : : : : ",
": : : : : : : : : : : : : - X ~ @. .o...@.) X $ 1 : : : : : : : : : : : : : : : 6 . f @.O...X.O.@.d o : : : : : : : : : : : : : ",
": : : : : : : : : : : : : - o ! @.X.o.o.o.@.L   : : : : : : : : : : : : : : : 6 o , o.@.o.o.o.O.@.g o : : : : : : : : : : : : : ",
": : : : : : : : : : : : : : o Y @.X.o.o.o.O.@.j . : : : : : : : : : : : : : : $ X _ @.X.o.o...@.[ % - : : : : : : : : : : : : : ",
": : : : : : : : : : : : : - o T @.o.o.o.o...@.@.w X 1 : : : : : : : : : : : :   I @.o.o.o.X.@.@.y o 1 : : : : : : : : : : : : : ",
": : : : : : : : : : : : : : X T @...o.o.o.o...@.} # + 1 : : : : : : : : : :   v @.o.o.o.o.o.@.v . : : : : : : : : : : : : : : : ",
": : : : : : : : : : : : : : o T @.o.o.o.o.o.o...@.! . - : : : : : : : : 1 X r @.@...o.o.o.@.U   - : : : : : : : : : : : : : : : ",
": : : : : : : : : : : : : : o T @...o.o.o.o.o.o.o.@.G   : : : : : : : : o = | @...o.o.X.@._ X $ : : : : : : : : : : : : : : : : ",
": : : : : : : : : : : : : : o T @.o.o.o.o.o.o.o.X.O.@.g . 1 : : : : : * X / @...o.o...@.o.< o 6 : : : : : : : : : : : : : : : : ",
"- : : : : : : : : - : : : : o T @.o.o.o.o.o.o.o.o...@.+.2 o 1 : : : :   J @.o.X.o.o.O.@.f . : : : : - : : : : : : : : : : : : : ",
": : : : : : : : : : : : : - X T @...o.o...@.@.X.o.o...@.` o @ 1 : : . j @.+.X.o.X.o.@.M . : : : : : : : : : : : : : : : : : : : ",
": : : : : : : : : : : : : : o T @.o.o.o.O.W | O...o.o.o.@.Y . - 6 X q @.@.X.o.o.X.@.W . - 1 : : : : : : : : : : : : : : : : : : ",
": : : : : : : : : : : : : : o T @.o.o.X.@.g u @.o.o.o.o.o.@.b . @ # { @...o.o...@.[ O @ 1 : : : : : : : : : : : : : : : : : : : ",
": : : : : : : : : : : : : - o T @.o.o.X.@.M   U @.o.o.o...@.@.t   ! @.o.X.o...@.@.5 X : : : : : : : : : : : : : : : : : : : : - ",
": : : : : : : : : : : : : : X T @...o.X.@.H . X _ @.o.o.o...@._ K @.o.o.o.o.o.@.h . : : : : : : : : : : : : : : : : : : : : : : ",
": : : : : : : : : : : : : : o T @.o.o.o.@.N o o < o.@...o.o...@.@.o...o.o.o.@.H   : : : : : : : : : : : : : : : : : : : : : : : ",
": : : : : : : : : : : : : - o T @.X.o.X.@.B X 6 . f @.O...o.o.o.o.o.o.o...@.^ . * : : : : : : : : : : : : : : : : : : : : : : : ",
": : : : : : : : : : : : : : X T @.X.o.X.@.B X : :   n @.o.o.o.o.o.o.o...@.| & O 1 : : : : : : : : : : : : : : : : : : : : : : : ",
": : : : : : : : : : : : : : o T @.o.o.X.@.N X : : - . W @.o.o.o.o.o...@.@.e X 1 : : : : : : : : : : : : : : : : : : : : : : : : ",
": : : : : : : : : : : : : : o T @.X.o.o.@.N X : : 6 @ O ] @...o.o.o.o.@.k . : : : : : : : : : : : : : : : : : : : : : : : : : : ",
": : : : : : - : : : : : : : o T @.X.o.X.@.N X : : : 6 X 4 +.@...o.o.@.P   - : : : : : : : : : : : : : : : : : - : : : : : : : : ",
": : : : : : : : : : : : : : o T @.o.o.X.@.N X : : : : : . g @.@.@.@.( X $ 1 : : : : : : : : : : : : : : : : : : : : : - : : : : ",
": : : : : : : : : : : : : - X T @.X.o.X.@.N o : : : : : : o g ^ ' L % + 1 : : : : : : : : : : : : : : : : : : : : : : : : : : : ",
": : : : : : : : : : : : : : o T @.o.o.X.@.N X : : : : : : : o o * X $ 1 : : : : : : : : : : : : : : : : : : : : : : : : : : : : ",
": : : : : : : : : : : : : - o T @.X.o.X.@.N X : : : : : : : : - - : : : : : : : : : : : : : : : : : : : : : : : : : : : : : : : ",
": : : : : : : : : : : : : : o T @.X.o.X.@.N X : : : : : : : : : : : : : : : : : : : : : 1 - $ - 1 : : : : : : : : : : : : : : : ",
": : : : : : : : : : : : : : o T @.X.o.X.@.N X : : : : : : : : : : : : : : : : : : : : : O @ 6 $ O : : : : : : : : : : : : : : : ",
": : : : : : : : : : : : : - o T @.o.o.X.@.N o : : : : : : : : : : : : : : - : : : : : O 9 V A V 9 O : : : : : : : : : : : : : : ",
": : : : : : : : : : : : : : o R @.X.o.o.@.B X : : : : : : : : : : : : : : : : : : : @ 7 S S A S S 7 O : : : : : : : : : : : : : ",
": : : : : : : - : : : : : : o W @...o.X.@.H X : : : : : : : : : : : : : : : : : : : X l D C Z C F l X : : : : - : : : : : : : : ",
": : : : : : : : : : : : : : X P @...X.o.@.c X : : : : : : : : : : : : : : : : : : : O a F Z C Z F s O : : : : : : : : : : : : : ",
": : : : : : : : : : : : : : @ 3 o.@.@.@.] = * : : : : : : : : : : : : : : : : : : : - @ z F S F z O - : : : : : : : : : : : : : ",
": : : : : : : : - : : : : : : o w R / I > + : : : : : : : : : : : : : : : : : : : : : * O i l i O * 1 : : : : : : : : : : : : : ",
": : : : : : : : : : : : : : : : O X O X $ 1 : : : : : : : : : : : : : : : : : : : : : 1 - O X O : 1 : : : : : : : : : : : : : : ",
": : : : : : : : : : : : : : : : : : - : : : : : : : : : : : : : : : : : : : : : : : : : : : : : : : : : : : : : : : : : : : : : ",
": : : : : : : : : : : : : : : : : : : : : : : : : : : : : : : : : : : : : : : : : : : : : : : : : : : : : : : : : : : : : : : : ",
": : : : : : : : : : : : : : : : : : : : : : : : : : : : : : : : : : : : : : : : : : : : : : : : : : : - : : : : : : : : : : : : ",
": : : : : : : : : : : : : : : : : : : : : : : : : : : : : : : : : : : : : : : : : : : : : : : : : : : : : : : : : : : : : : : : ",
": : : : : : : : : : : : : : : : : : - : : : : : : : : : : : : : : : : : : : : : : : : : : : : : : : : : : : : : : : : : : : : : ",
": : : : : : : : : : : : : : : : : : : : : : : : : : : : : : : : - : : : : : : : : : : : : : : : : : : : : : : : : : : : : : - : ",
": : : : : : : : : : : : : : : : : : : : : : : : : : : : : : : : : : : : : : : : : : : : : : : : : : : : : : : : : : : : : : : : ",
": : : : : : : : : : : : : : : : : : : : : : : : : : : : : : : : : : : : : : : : : : : : : : : : : : : : : : : : : : : : : : : : ",
": : : : : : : : : : : : : : : : : : : : : : : : : : : : : : : : : : : : : : : : : : : : : : : : : : : : : : : : : : : : : : : : ",
": : : : : : : : : : : : : : : : : : : : : : : : : : : : : : : - : : : : : : : : : : : : : : : : : : : : : : : : : : : : : : : : ",
": : : : : : : : : : : : : : : : : : : : : : : : : : : : : : : : : : : : : : : : : : : : : : : : : : : : : : : : : : : : : : : 1 ",
"#.- : : : : : : : : : : : : : : : : : : : : : : : : : : : : : : : : : : : : : : : : : - : : : : : : : : : : : : : : : : : : * #.",
"#.1 - : : : : : : : : : : : : : : : : - : : : : : : : : : : : : : : : : : : : : : : : : : : : : : : : : : : : : : : : : : : 1 #.",
"#.#.#.: : : : : : : : : : : : : : : : : : : : : : : : : : : : : : : : : : : : : : : : : : : : : : : : : : : : : : : : : : #.#.#."
};
