<?xml version="1.0" encoding="UTF-8"?>
<svg width="120px" height="119px" viewBox="0 0 120 119" version="1.1" xmlns="http://www.w3.org/2000/svg" xmlns:xlink="http://www.w3.org/1999/xlink">
    <!-- Generator: Sketch 49.3 (51167) - http://www.bohemiancoding.com/sketch -->
    <title>icon without bg</title>
    <desc>Created with Sketch.</desc>
    <defs>
        <polygon id="path-1" points="0.811470588 0.00899111111 119.219706 0.00899111111 119.219706 118.196697 0.811470588 118.196697"></polygon>
    </defs>
    <g id="icon-without-bg" stroke="none" stroke-width="1" fill="none" fill-rule="evenodd">
        <g id="logo">
            <g id="Group-25">
                <mask id="mask-2" fill="white">
                    <use xlink:href="#path-1"></use>
                </mask>
                <g id="Clip-24"></g>
                <path d="M11.402563,0.00854155556 L11.8212185,0.00854155556 C15.1660084,0.00854155556 18.1144118,1.62694156 20.6708824,4.86374156 C21.6017227,6.12699267 33.0078571,20.760026 54.8937395,48.7628416 C58.2830672,53.0291238 60.0066807,55.1869904 60.0512185,55.231946 C75.9423109,35.0199282 89.5085294,17.6895616 100.754328,3.24534156 C103.074748,1.08747489 105.537689,0.00854155556 108.143151,0.00854155556 L108.837941,0.00854155556 C112.414328,0.00854155556 115.389454,1.78878156 117.758866,5.35375711 C118.734244,7.13399711 119.219706,8.91873267 119.219706,10.6989727 C119.219706,13.7964104 117.807857,16.8668749 114.970798,19.9193571 L67.5781092,80.4879771 C65.3022269,82.5514371 62.7947479,83.5854149 60.0512185,83.5854149 C56.1007143,83.5854149 52.9429832,81.7557238 50.5691176,78.0963416 L22.6260924,42.5005327 L22.6260924,106.939826 C22.6260924,112.289537 20.1586975,115.921946 15.2372689,117.846044 C14.5380252,118.079813 14.0258403,118.196697 13.7051681,118.196697 L10.2178571,118.196697 C8.49869748,118.196697 6.49894958,117.185197 4.22306723,115.171188 C2.17878151,112.96387 1.15886555,110.315988 1.15886555,107.223046 L1.15886555,13.7244816 L0.811470588,10.8428304 C0.811470588,6.760866 2.7355042,3.55103933 6.59247899,1.20435933 C8.17357143,0.404150444 9.77693277,0.00854155556 11.402563,0.00854155556" id="Fill-23" fill="#F1F1F2" mask="url(#mask-2)"></path>
            </g>
            <path d="M109.170341,98 L109.974616,98 C113.294589,98 116.170341,99.5493744 118.611222,102.648123 C119.537074,104.244191 120,105.903932 120,107.631591 C120,111.040214 118.148297,113.807864 114.440214,115.93454 C112.780227,116.643432 111.269873,117 109.904476,117 L109.095524,117 C105.537074,117 102.609886,115.357239 100.313961,112.080206 C99.4395458,110.530831 99,108.981457 99,107.432082 C99,104.023458 100.804943,101.277033 104.41483,99.1970509 C106.02338,98.399017 107.60855,98 109.170341,98" id="Fill-26" fill="#1E8DE0"></path>
        </g>
    </g>
</svg>